<svg width="21" height="22" viewBox="0 0 21 22" fill="none" xmlns="http://www.w3.org/2000/svg">
<path d="M20.5419 18.7643L18.9219 20.3843C18.2039 21.1024 17.2515 21.4929 16.2565 21.4929C16.1003 21.4929 15.944 21.4829 15.7853 21.4626C12.4067 21.0444 8.6855 19.0212 5.57672 15.9123C2.46772 12.8057 0.44701 9.08466 0.0290564 5.70595C-0.114523 4.54202 0.278433 3.40077 1.10984 2.56932L2.72983 0.949332C3.31941 0.359744 4.27931 0.359744 4.86629 0.949332L8.42875 4.51179C8.71344 4.79649 8.87214 5.17696 8.87214 5.57993C8.87214 5.98308 8.71591 6.36338 8.42875 6.64807L6.46873 8.60809L12.8829 15.0223L14.8429 13.0622C15.4325 12.4726 16.3898 12.4726 16.9794 13.0622L20.5418 16.6247C21.1314 17.2145 21.1314 18.1744 20.5418 18.764L20.5419 18.7643Z" fill="white"/>
</svg>
