<svg width="32" height="32" viewBox="0 0 32 32" fill="none" xmlns="http://www.w3.org/2000/svg">
<path d="M16 7.39759C18.7831 7.39759 19.1627 7.39759 20.3012 7.39759C21.3133 7.39759 21.8193 7.6506 22.1988 7.77711C22.7048 8.03012 23.0843 8.15663 23.4639 8.53615C23.8434 8.91566 24.0964 9.29518 24.2229 9.80121C24.3494 10.1807 24.4759 10.6867 24.6024 11.6988C24.6024 12.8374 24.6024 13.0904 24.6024 16C24.6024 18.9096 24.6024 19.1627 24.6024 20.3012C24.6024 21.3133 24.3494 21.8193 24.2229 22.1988C23.9699 22.7048 23.8434 23.0843 23.4639 23.4639C23.0843 23.8434 22.7048 24.0964 22.1988 24.2229C21.8193 24.3494 21.3133 24.4759 20.3012 24.6024C19.1627 24.6024 18.9096 24.6024 16 24.6024C13.0904 24.6024 12.8374 24.6024 11.6988 24.6024C10.6867 24.6024 10.1807 24.3494 9.80121 24.2229C9.29518 23.9699 8.91566 23.8434 8.53615 23.4639C8.15663 23.0843 7.90361 22.7048 7.77711 22.1988C7.6506 21.8193 7.5241 21.3133 7.39759 20.3012C7.39759 19.1627 7.39759 18.9096 7.39759 16C7.39759 13.0904 7.39759 12.8374 7.39759 11.6988C7.39759 10.6867 7.6506 10.1807 7.77711 9.80121C8.03012 9.29518 8.15663 8.91566 8.53615 8.53615C8.91566 8.15663 9.29518 7.90361 9.80121 7.77711C10.1807 7.6506 10.6867 7.5241 11.6988 7.39759C12.8374 7.39759 13.2169 7.39759 16 7.39759ZM16 5.5C13.0904 5.5 12.8374 5.5 11.6988 5.5C10.5602 5.5 9.80121 5.75301 9.16868 6.00602C8.53615 6.25904 7.90362 6.63856 7.27109 7.27109C6.63856 7.90362 6.38554 8.40964 6.00602 9.16868C5.75301 9.80121 5.62651 10.5602 5.5 11.6988C5.5 12.8374 5.5 13.2169 5.5 16C5.5 18.9096 5.5 19.1627 5.5 20.3012C5.5 21.4398 5.75301 22.1988 6.00602 22.8313C6.25904 23.4639 6.63856 24.0964 7.27109 24.7289C7.90362 25.3614 8.40964 25.6145 9.16868 25.994C9.80121 26.247 10.5602 26.3735 11.6988 26.5C12.8374 26.5 13.2169 26.5 16 26.5C18.7831 26.5 19.1627 26.5 20.3012 26.5C21.4398 26.5 22.1988 26.247 22.8313 25.994C23.4639 25.741 24.0964 25.3614 24.7289 24.7289C25.3614 24.0964 25.6145 23.5904 25.994 22.8313C26.247 22.1988 26.3735 21.4398 26.5 20.3012C26.5 19.1627 26.5 18.7831 26.5 16C26.5 13.2169 26.5 12.8374 26.5 11.6988C26.5 10.5602 26.247 9.80121 25.994 9.16868C25.741 8.53615 25.3614 7.90362 24.7289 7.27109C24.0964 6.63856 23.5904 6.38554 22.8313 6.00602C22.1988 5.75301 21.4398 5.62651 20.3012 5.5C19.1627 5.5 18.9096 5.5 16 5.5Z" fill="white"/>
<path d="M16 10.5602C12.9639 10.5602 10.5602 12.9639 10.5602 16C10.5602 19.0361 12.9639 21.4398 16 21.4398C19.0361 21.4398 21.4398 19.0361 21.4398 16C21.4398 12.9639 19.0361 10.5602 16 10.5602ZM16 19.5422C14.1024 19.5422 12.4578 18.0241 12.4578 16C12.4578 14.1024 13.9759 12.4578 16 12.4578C17.8976 12.4578 19.5422 13.9759 19.5422 16C19.5422 17.8976 17.8976 19.5422 16 19.5422Z" fill="white"/>
<path d="M21.5663 11.6988C22.2649 11.6988 22.8313 11.1324 22.8313 10.4337C22.8313 9.73506 22.2649 9.16868 21.5663 9.16868C20.8676 9.16868 20.3012 9.73506 20.3012 10.4337C20.3012 11.1324 20.8676 11.6988 21.5663 11.6988Z" fill="white"/>
</svg>
