<svg width="21" height="21" viewBox="0 0 21 21" fill="none" xmlns="http://www.w3.org/2000/svg">
<path d="M17.549 0.931574C16.1844 0.158456 14.6005 -0.0362788 13.0895 0.381833C11.5784 0.800128 10.3203 1.78161 9.5476 3.14582L8.9595 4.18427C8.91898 4.25503 8.88972 4.32937 8.86719 4.40449C9.5899 4.50452 10.294 4.70951 10.9559 5.01966L11.4175 4.2052C11.9075 3.34033 12.7049 2.71782 13.6631 2.45294C14.6207 2.18706 15.6252 2.3116 16.49 2.80145C18.2754 3.81339 18.9049 6.08891 17.8933 7.87427L15.8939 11.4023C15.4039 12.2672 14.6068 12.8899 13.6489 13.1546C12.6905 13.4201 11.6863 13.2957 10.8214 12.8062C9.63889 12.1357 8.92407 10.8767 8.93531 9.53443C8.42033 9.26953 7.81245 9.20291 7.25147 9.3573C7.08858 9.40218 6.934 9.46524 6.78791 9.54213C6.77941 11.6492 7.90424 13.6225 9.76221 14.6762C10.7248 15.2208 11.7956 15.4788 12.8734 15.4371C13.3239 15.4195 13.7762 15.3497 14.2218 15.2261C15.733 14.808 16.9909 13.8267 17.764 12.4625L19.7636 8.9343C21.3581 6.11794 20.3652 2.52851 17.549 0.931867L17.549 0.931574ZM9.11082 16.9607C8.62076 17.826 7.82333 18.4483 6.86515 18.7136C5.90696 18.9783 4.90313 18.8543 4.03831 18.3641C3.17283 17.874 2.55057 17.0766 2.28585 16.1184C2.02096 15.1604 2.14451 14.1568 2.63476 13.2921L4.63413 9.76349C5.12418 8.89862 5.92126 8.27611 6.87919 8.01123C7.83738 7.74594 8.84136 7.87009 9.70583 8.36014C10.889 9.03027 11.6032 10.2895 11.5919 11.6322C12.1077 11.8975 12.7166 11.9641 13.2768 11.8087C13.4395 11.7638 13.5937 11.7004 13.7401 11.6239C13.7485 9.51655 12.6237 7.5433 10.7656 6.49083C9.40164 5.71771 7.81719 5.52237 6.30674 5.94048C4.79567 6.35878 3.53759 7.34047 2.76488 8.70467L0.765511 12.2329C-0.00760734 13.5971 -0.202949 15.1808 0.215163 16.6918C0.63326 18.2029 1.61494 19.461 2.97915 20.2337C3.94169 20.7787 5.01232 21.0369 6.09009 20.9956C6.54101 20.9778 6.99291 20.9078 7.43851 20.7846C8.94977 20.3663 10.2077 19.3849 10.9808 18.0206L11.5689 16.982C11.6088 16.9123 11.6381 16.8395 11.6604 16.7652C10.9408 16.6652 10.2367 16.4592 9.57226 16.1468L9.11082 16.9607Z" fill="white"/>
</svg>
