<svg width="32" height="32" viewBox="0 0 32 32" fill="none" xmlns="http://www.w3.org/2000/svg">
<path d="M20.114 13.291C20.666 12.739 21.214 11.451 18.914 13.015C15.646 15.27 12.425 17.387 12.425 17.387C12.0934 17.5369 11.735 17.6183 11.3712 17.6262C11.0074 17.6341 10.6457 17.5684 10.308 17.433C8.92798 17.019 7.31698 16.467 7.31698 16.467C7.31698 16.467 6.21698 15.776 8.09998 15.04C8.09998 15.04 16.061 11.773 18.822 10.622C19.88 10.162 23.469 8.69 23.469 8.69C23.469 8.69 25.126 8.045 24.988 9.61C24.942 10.254 24.574 12.51 24.206 14.948C23.653 18.399 23.055 22.173 23.055 22.173C23.055 22.173 22.963 23.231 22.181 23.415C21.3439 23.4008 20.535 23.1097 19.881 22.587C19.697 22.449 16.43 20.378 15.233 19.366C15.1112 19.2835 15.0123 19.1716 14.9454 19.0406C14.8785 18.9096 14.8459 18.7638 14.8505 18.6168C14.8551 18.4698 14.8967 18.3264 14.9717 18.1998C15.0466 18.0733 15.1523 17.9677 15.279 17.893C16.939 16.375 18.918 14.488 20.114 13.291Z" fill="white"/>
</svg>
