<svg width="32" height="32" viewBox="0 0 32 32" fill="none" xmlns="http://www.w3.org/2000/svg">
<path d="M20.607 13.7203C20.5284 13.0812 20.3319 12.5793 19.9831 12.1348C19.5301 11.5624 18.9512 11.2197 18.0941 11.0164C17.5355 10.8808 17.3099 10.8964 17.1079 11.0809C16.9197 11.2538 16.883 11.6004 17.0268 11.8248C17.1279 11.9877 17.2445 12.0461 17.569 12.1098C18.0011 12.1893 18.2997 12.2924 18.5713 12.4477C19.1479 12.7806 19.4163 13.3016 19.4451 14.1449C19.4585 14.5409 19.4927 14.6627 19.631 14.8031C19.8874 15.0598 20.3436 15.0099 20.5371 14.7027C20.6081 14.5869 20.619 14.5365 20.6265 14.2676C20.6314 14.1011 20.6243 13.8534 20.607 13.7203Z" fill="white"/>
<path d="M22.8651 14.4411C22.7512 12.483 21.9854 10.9076 20.6147 9.79917C19.8424 9.17635 18.9089 8.74809 17.8856 8.53981C17.5108 8.46532 16.8207 8.40494 16.7023 8.43948C16.5906 8.47146 16.4325 8.59243 16.3621 8.70183C16.2876 8.82046 16.2708 9.08533 16.3344 9.23854C16.4369 9.49467 16.6277 9.58516 17.162 9.6319C17.9856 9.70396 18.8352 9.99333 19.4771 10.4217C20.2099 10.9095 20.7924 11.5767 21.1693 12.3606C21.4949 13.0342 21.6952 14.0049 21.6896 14.8742C21.6878 15.1886 21.7363 15.3661 21.8627 15.4959C22.0536 15.6955 22.3318 15.7392 22.5773 15.6066C22.8494 15.4635 22.913 15.2123 22.8651 14.4411Z" fill="white"/>
<path d="M25.3639 21.9818C25.3256 21.8698 25.2363 21.6972 25.1724 21.5981C24.7702 20.9907 22.609 19.2993 21.5299 18.7462C20.9138 18.4297 20.4573 18.3242 20.1189 18.4233C19.755 18.5256 19.5634 18.695 18.9537 19.4528C18.7079 19.7565 18.4557 20.0411 18.3887 20.0858C18.2226 20.2009 17.897 20.2937 17.6672 20.2937C17.1341 20.2904 16.1668 19.9451 15.4229 19.4911C14.8451 19.1395 14.1045 18.5096 13.5363 17.8862C12.8659 17.154 12.4094 16.5082 12.0486 15.7792C11.5826 14.8424 11.4644 14.2701 11.6592 13.8513C11.707 13.7458 11.7709 13.6339 11.7996 13.5987C11.8284 13.5668 12.1285 13.3206 12.4604 13.052C13.1117 12.5341 13.217 12.4158 13.3383 12.0609C13.4916 11.61 13.4501 11.1497 13.2138 10.6861C13.0319 10.3344 12.5562 9.56706 12.2114 9.07151C11.7549 8.41931 10.6185 7.02533 10.3918 6.83664C9.98315 6.50417 9.45965 6.44658 8.88178 6.67043C8.2721 6.90703 7.1292 7.82781 6.64076 8.47046C6.20021 9.05233 6.03107 9.46475 6.0055 10.0083C5.98317 10.4559 6.02147 10.6413 6.25771 11.2136C8.10608 15.7025 10.8642 19.2865 14.6536 22.132C16.6329 23.6187 18.6855 24.7505 20.8148 25.5243C22.0566 25.9751 22.5962 25.9974 23.2314 25.6266C23.4996 25.4667 24.1636 24.7857 24.5339 24.2901C25.1469 23.4652 25.3735 23.0848 25.4374 22.7811C25.4821 22.5733 25.4469 22.212 25.3639 21.9818Z" fill="white"/>
<path d="M25.164 14.8908C25.1231 13.7831 24.9366 12.8746 24.5478 11.8617C24.1639 10.8653 23.7753 10.2151 23.0415 9.33574C22.3478 8.5112 21.8089 8.0404 20.9543 7.51634C19.762 6.78617 18.311 6.30297 16.6848 6.09976C16.1302 6.02874 16.0048 6.03381 15.8347 6.14733C15.505 6.36238 15.5094 6.89877 15.8401 7.1106C15.9496 7.17799 16.0467 7.20253 16.4903 7.26059C17.1713 7.35227 17.6091 7.43867 18.1287 7.58043C20.1661 8.13738 21.7329 9.27581 22.7803 10.9657C23.6569 12.3743 24.0208 13.783 23.9691 15.5821C23.9511 16.1904 23.9642 16.2974 24.0572 16.4435C24.2352 16.7159 24.7048 16.7698 24.9457 16.5438C25.0955 16.406 25.1238 16.3026 25.1533 15.782C25.1675 15.5105 25.1705 15.1096 25.164 14.8908Z" fill="white"/>
</svg>
