<svg width="32" height="32" viewBox="0 0 32 32" fill="none" xmlns="http://www.w3.org/2000/svg">
<path fill-rule="evenodd" clip-rule="evenodd" d="M24.4 7.45C22.15 5.2 19.15 4 16 4C9.4 4 4 9.4 4 16C4 18.1 4.60001 20.2 5.65001 22L4 28L10.3 26.35C12.1 27.25 14.05 27.85 16 27.85C22.6 27.85 28 22.45 28 15.85C28 12.7 26.65 9.7 24.4 7.45ZM16 25.9C14.2 25.9 12.4 25.45 10.9 24.55L10.6 24.4L6.84999 25.45L7.90001 21.85L7.59999 21.4C6.54999 19.75 6.09999 17.95 6.09999 16.15C6.09999 10.75 10.6 6.25 16 6.25C18.7 6.25 21.1 7.3 23.05 9.1C25 11.05 25.9 13.45 25.9 16.15C25.9 21.4 21.55 25.9 16 25.9ZM21.4 18.4C21.1 18.25 19.6 17.5 19.3 17.5C19 17.35 18.85 17.35 18.7 17.65C18.55 17.95 17.95 18.55 17.8 18.85C17.65 19 17.5 19 17.2 19C16.9 18.85 16 18.55 14.8 17.5C13.9 16.75 13.3 15.7 13.15 15.4C13 15.1 13.15 14.95 13.3 14.8C13.45 14.65 13.6 14.5 13.75 14.35C13.9 14.2 13.9 14.05 14.05 13.9C14.2 13.75 14.05 13.6 14.05 13.45C14.05 13.3 13.45 11.8 13.15 11.2C13 10.75 12.7 10.75 12.55 10.75C12.4 10.75 12.25 10.75 11.95 10.75C11.8 10.75 11.5 10.75 11.2 11.05C10.9 11.35 10.15 12.1 10.15 13.6C10.15 15.1 11.2 16.45 11.35 16.75C11.5 16.9 13.45 20.05 16.45 21.25C19 22.3 19.45 22 20.05 22C20.65 22 21.85 21.25 22 20.65C22.3 19.9 22.3 19.3 22.15 19.3C22 18.55 21.7 18.55 21.4 18.4Z" fill="white"/>
</svg>
